<svg xmlns="http://www.w3.org/2000/svg" width="426.818" height="410.015" viewBox="0 0 426.818 410.015">
  <g id="deco-logo-light" transform="translate(-681.064 -559.418)">
    <path id="Path_61" data-name="Path 61" d="M1073.443,728.623c0-4.763.3-9.549-.052-14.286-1.429-19.328,14.848-42.962,34.491-49.084a22.675,22.675,0,0,1-.936,2.86c-3.642,7.33-7.445,14.583-10.949,21.978-2.49,5.255-4.006,11.058-7.046,15.938a40.289,40.289,0,0,1-10.293,10.743c-3.09,2.27-4.519,4.762-4.245,8.162.669,8.285,1.385,16.583,2.575,24.8,1.938,13.4,2.275,26.722-.682,40.011-.284,1.278-.708,2.525-.807,2.872.523-9.609,1.188-20.01,1.627-30.42.426-10.1-3.809-18.008-13.023-22.041-4.94-2.162-10.768-2.464-16.251-3.18-13.046-1.706-25.739-4.121-36.364-12.8-2.54-2.076-5.8-3.275-8.727-4.876l.372-1.816c5.754.448,11.541.643,17.251,1.414,6.249.842,12.656,1.543,18.572,3.549a67.72,67.72,0,0,1,17.018,8.612c6.559,4.614,12.35,10.317,18.766,15.8a4.645,4.645,0,0,0,.192-1.373c-3.188-15.177-7.144-30.1-16.195-43.026a7.248,7.248,0,0,0-5.413-2.685c-18.008,1.2-35.07-1.506-50.769-10.959-2.573-1.55-5.626-2.284-8.306-3.685-1.386-.726-2.44-2.088-3.644-3.163,1.452-.64,2.906-1.84,4.355-1.835a116.5,116.5,0,0,1,52.7,12.542c1.13.569,2.278,1.1,3.427,1.632.318.146.67.217,2.261.717-2.021-2.272-3.219-3.768-4.568-5.114-7.5-7.474-15.5-14.031-26.045-17.028-19.463-5.53-34.89-16.911-46.581-33.387-.625-.88-1.109-1.86-2.128-3.595a20.832,20.832,0,0,1,3.885.03c18.388,4.306,34.53,12.2,45.827,28.164a70.285,70.285,0,0,0,16.975,17.1c7.2,5.08,13.6,11.293,20.355,17.011l-1.129,1.506c-4.248-7.738-8.254-15.622-12.793-23.187a162.645,162.645,0,0,0-42.278-47.27c-3.693-2.759-7.079-3.461-11.2-1.816-2.467.986-5.016,1.766-7.477,2.766-8.332,3.386-16.773,3.789-25.7,2.458-5.96-.889-12.208.21-18.329.309a35.737,35.737,0,0,1-4.822-.559c.925-1.206,1.638-2.692,2.807-3.577,12.738-9.651,27.665-8.247,42.3-8.112,3.121.029,6.237.717,9.485.664-9.644-4.04-17.809-11.762-29.837-9.461-15.3,2.926-34.245-6.641-42.734-20.656-3.424-5.654-6.793-11.34-10.288-17.181a10.393,10.393,0,0,1,3.382.367c6.362,2.714,13.17,4.81,18.862,8.576,11.367,7.525,22.043,16.087,33.154,24.011,2.776,1.98,6.121,3.163,8.877,4.548-3.28-6.957-7.163-13.464-9.432-20.491-2.253-6.977-2.879-14.477-4.219-21.748q.788-.34,1.577-.681c.825,1.172,1.754,2.285,2.456,3.527,3.041,5.377,5.593,11.088,9.117,16.12,4.793,6.844,5.338,14.575,6.31,22.358a5.277,5.277,0,0,0,2.349,3.678,140.477,140.477,0,0,1,41.505,28.988,24.949,24.949,0,0,0,2,1.492,25.672,25.672,0,0,0-1.686-4.106c-5.526-8.13-10.634-16.609-16.8-24.224-10.045-12.4-16.232-26.172-17.417-42.071a52.251,52.251,0,0,1,1.052-15.02,25.254,25.254,0,0,1,1.5,2.263c1.413,2.689,2.366,5.728,4.216,8.061,9.012,11.359,11.114,25.208,14.379,38.654a6.915,6.915,0,0,1,.35,2.624c-1.226,7.363,3.129,12.344,6.712,16.675,1.067-7.929.757-17.062,3.789-24.9,3.008-7.775,9.383-14.248,14.279-21.292l1.606.679c-.116,1.489-.163,2.987-.363,4.465-.74,5.485-2.173,10.966-2.15,16.444.034,7.81-1.715,14.757-6.435,20.965-.919,1.208-1.682,2.531-2.545,3.782-2.819,4.081-3.219,7.689-1.135,12.855,3.928,9.736,10.963,17.109,17.492,24.551,4.4,5.012,5.9,11.022,9.452,16.168,3.853,5.574,6.732,11.9,9.468,18.15,4.2,9.585,7.912,19.383,11.831,29.09l.842-.026M914.284,577.371c8.947,22.638,29.385,37.165,46.242,33.208-9.254-2.139-16.266-6.929-22.551-12.913-4.128-3.93-8.069-8.071-12.374-11.8-3.56-3.079-7.529-5.684-11.317-8.5m112.523,95.648c-5.256-16.043-29.229-32.756-48.026-35.176l48.026,35.176m49.82,43.238c17.326-9.9,16.3-30.29,26.984-45.347-17.347,11.251-17.971,30.7-26.984,45.347M963.487,610.423q.471-1.1.941-2.2c-15.878-10.526-30.267-23.3-47.55-31.635,5.732,5.393,11.517,10.622,17.375,15.767,4.465,3.921,8.657,8.324,13.646,11.426,4.739,2.949,10.356,4.487,15.588,6.645m44.308,4.787,1.909-.568c-2.573-17.376-6.05-34.429-18.952-48.125q8.521,24.345,17.043,48.693m-16.9,11.631c-25.142-2.658-37.959-1.537-45.341,3.308,4.646.335,10.243.1,15.538,1.258,10.325,2.251,19.734.056,29.8-4.566m110.76,43.041c-20.239,9.052-29.069,34.935-26.359,45.164,2.469-4.962,5.384-9.353,6.913-14.182,3.82-12.06,9.349-22.868,19.446-30.982M998.079,683.6c16.13,11.792,33.95,16.589,52.742,14.868L998.079,683.6m12.409,37.712c14.008,12.915,30.767,13.57,47.149,15.47q.284-.953.565-1.9l-47.714-13.565m39.733-24.386.366-1.37c-18.013-9.629-37.188-14.572-57.046-14.247l56.68,15.617m-29.215-26.16-41.658-31.247c9.852,16.806,24.842,26.4,41.658,31.247m-.733-40.619c4.137-13.813,8.112-27.09,12.263-40.945-13.37,11.318-14.564,25.365-12.263,40.945m36.289,102.813c-5.617-4.637-11.094-8.512-18.145-9.624-5.86-.924-11.673-2.14-17.529-3.1-3.822-.624-7.683-1.015-11.525-1.51-.046.339-.093.68-.14,1.02l47.339,13.21m-22.018-146.131q-6.411,21.474-12.821,42.947c7.094-8.266,12.671-16.89,11.6-28.377-.447-4.775.766-9.706,1.223-14.57m-28.9,26.492c-5.266-15.267-10.6-30.72-15.874-46.028.361,17.053,5.091,32.751,15.874,46.028m-61.985,14.791c7.526-1.269,16.092-3.478,24.755-3.961s17.441.759,26.166,1.246c-11.092-6.487-43.509-3.724-50.921,2.715m32.505-19.749c1.993-11.215-3.985-19.218-10.86-26.849l10.86,26.849m-.813,1.3c-4.191-10.52-8.328-20.9-12.653-31.751,1.655,11.961,3.774,23.18,12.653,31.751" fill="#d06f4d"/>
    <path id="Path_62" data-name="Path 62" d="M771.561,882.246c-7.77-11.831-15.739-23.537-23.23-35.543-4.255-6.823-8.712-9.282-15.579-5.482-12.639,6.994-25.829,5.9-39.215,4.168-.867-.112-1.645-.91-2.464-1.388.688-.763,1.229-1.864,2.088-2.236,12.893-5.582,25.954-10.322,40.394-6.857.3.072.658-.111,1.681-.31-27.57-9.579-33.4-33.309-39.828-58.336,7.761,8.035,15.539,14.395,21.123,22.3,6.651,9.422,11.214,20.294,17.1,30.291,2.513,4.268,6.086,7.911,9.178,11.839l1.565-1.057c-1.788-4.61-3.639-9.2-5.353-13.833-7.328-19.832-9.942-40.426-10.575-61.458-.149-4.929-2.7-9.858-4.584-14.609-.457-1.147-2.622-1.8-4.127-2.311-6.11-2.067-12.529-3.434-18.321-6.151a36.636,36.636,0,0,1-11.113-8.656c-3.867-4.277-6.848-9.357-9.237-12.716,15.2-1.69,26.731,10.745,40.614,21.587-1.941-5.068-2.975-9.252-5.028-12.854a76.446,76.446,0,0,1-9.878-38.464c-.011-4.033-.764-8.062-.784-12.094a151.719,151.719,0,0,1,1.144-20.532c7.36,10.027,13.4,20.336,13.68,32.861.3,13.1,2.935,26.266-.967,39.291-.359,1.2.119,2.767.529,4.062,2.352,7.432,4.8,14.835,7.875,22.205a137.929,137.929,0,0,1,13.226-52.635l1.391.718c2.586-3.166,4.987-6.508,7.807-9.45,3.175-3.313,6.227-7.375,10.207-9.171,13.578-6.129,27.539-11.411,41.366-16.988a4.554,4.554,0,0,1,1.506-.02c0,.526.154,1.053-.021,1.208-7.59,6.7-12.34,16.441-22.582,20.346-4.811,1.835-9.11,4.975-13.861,7.009-3.565,1.526-7.519,3.244-11.234,3.107-10.134-.374-14.83,6.087-17.554,13.869-3.235,9.246-6.2,18.9-7.094,28.575-1.2,13-.3,26.2.313,39.6-3.393-26.069,7.027-46.067,27.1-61.869a14.478,14.478,0,0,1-1.136,3.179c-5.57,8.619-8.686,17.779-7.955,28.29a28.278,28.278,0,0,1-6.574,20.467,11.845,11.845,0,0,1-5.818,3.822c-2.852.691-3.807,2.023-4.369,4.738-3.081,14.9,2,28.6,6.4,42.258,6.434,19.966,17.507,37.535,29.9,54.3a13.566,13.566,0,0,0,2.241,1.953q.027,1.485.054,2.97M709.282,664.862q-.889.081-1.779.162c-3.053,17.561,2.188,52.057,10.369,59.942q-4.295-30.051-8.59-60.1m9.957,60.4c5.6-13.583-.724-53.521-9.009-61.424,2.9,19.781,5.971,40.709,9.009,61.424m30.943,4.442c-11.16,8.488-20.661,35.123-15.637,46.023,2.6-5.458,5.954-9.835,6.689-14.616,1.673-10.889,3.4-21.606,8.948-31.407M699.777,786.3c2.951,19.938,19.366,43.655,29.157,44.031L699.777,786.3m95.416-113.4q-.312-.739-.625-1.48c-12.2,5.637-24.546,11.007-36.524,17.091-3.2,1.628-5.3,5.438-7.9,8.247q.568.576,1.136,1.155c1.606-.929,3.187-1.906,4.824-2.777,5.105-2.718,9.97-6.289,15.41-7.891,9.313-2.741,16.782-7.935,23.683-14.345M731,831.033l1.627-1.1c-9.042-15.761-14.178-34.21-31.726-44.11Zm21.5-133.4q.5,1.134,1,2.265c17.1-4.7,33.227-11.087,44.145-26.5a55.761,55.761,0,0,0-4.868,3.207c-5.643,3.517-11.179,7.262-17.077,10.3-7.571,3.894-15.452,7.183-23.2,10.733m-16.749,76.837,1.072.969c1.736-1.214,4.186-2.049,5.071-3.715,2.452-4.622,5.2-9.419,6.1-14.455,1.521-8.531,1.709-17.3,2.506-26.526-2.147,6.528-4.879,12.69-6.121,19.137-1.668,8.656-1.712,17.684-8.625,24.59m-51.246-53.205,35.782,24.6,1.169-1.738c-10.408-10.332-21-20.378-36.951-22.866m31.728,24.258.2-.575c-5.392-3.683-10.824-7.308-16.163-11.067-5.209-3.668-10.322-7.473-15.479-11.218q-.759.933-1.521,1.864c4.788,4.6,9.026,10.066,14.518,13.563s12.249,5.036,18.45,7.433m-18.67,98.134c14.13,4.5,25.959,1.13,37.209-5.749l-37.209,5.749m-3.593-.659,39.029-6.06c-13.587-4.176-25.79-.049-39.029,6.06" fill="#d06f4d"/>
    <path id="Path_63" data-name="Path 63" d="M845.649,937.323l20.676,5.978c-9.249-7.918-20.219-13.926-26.094-24.924-5.646-10.57-11.136-21.392-10.583-34.2,1.957,2.528,3.815,5.144,5.907,7.554a19.584,19.584,0,0,0,4.525,4.023c11.753,7.036,18.065,18.051,22.783,30.369,7.05,18.407,7.159,18.149,26.428,21.567,28.126,4.989,54.531-1.165,80.366-11.618a8.325,8.325,0,0,0,1.119-.586c-7.429.447-15.268,1.255-23.109,1.271-5.012.01-10.05-1.012-15.036-1.823-8.448-1.374-16.94-2.621-25.266-4.554-5.346-1.239-11.01-2.717-15.516-5.647-12.283-7.989-24.028-16.806-36.427-25.608,5.876-2.3,11.691-1.982,17.421-.918,14.411,2.675,25.361,11.161,34.691,21.839,11.148,12.76,26.207,14.311,41.555,15.524-16.886-8.737-28.927-22.66-40.53-37.052-1.863-2.312-3.52-4.79-6.157-8.4a27.537,27.537,0,0,1,4.086,1.124c3.9,2.024,7.646,4.4,11.658,6.161A63.041,63.041,0,0,1,948.1,924.316c7.914,13.666,4.736,13.209,21.131,9.216,24.985-6.086,45.485-19.822,61.007-40.589.3-.4.612-.8.942-1.184.061-.07.236-.042,1.192-.177-1.048,1.69-1.762,3.019-2.641,4.229-7.337,10.1-16.906,17.676-27.245,24.483A16.455,16.455,0,0,0,997,926.953c-1.939,4.228-2.894,8.894-4.6,13.243-3.494,8.908-11.372,13.3-19.109,17.6-5.938,3.3-12.148,6.133-18.321,8.992a75.482,75.482,0,0,1-7.681,2.643q-.461-.719-.918-1.435l46.852-42.184c-5.083,2.569-10.245,5.161-15.39,7.785-20.973,10.7-43.429,15.68-66.738,17.495a18.6,18.6,0,0,0-6.117,1.773c-6.443,2.95-12.851,5.985-19.183,9.166-13.582,6.826-27.75,7.074-42.234,3.972-5.07-1.086-10.159-2.161-15.127-3.624-2.367-.7-4.471-2.29-6.763-3.514,25.287-10.744,50.925-11.639,76.693-7.3l-53.6-13.576.884-.671m-12.547,22.2,19.52.009,43.636-6.8c-31.7-3.929-51.362-2.2-69.747,5.924l6.591.862m-3.026,2.17c17.88,8.967,52.835,5.6,69.485-8.556-12.492,2.214-24.216,4.813-36.079,6.247-11.806,1.427-23.752,1.684-33.406,2.309M863.07,902.45c20.652,18.628,38.7,28.427,47.87,26.849-4.871-3.533-10.793-6.875-15.514-11.456-8.966-8.7-19.908-12.6-32.356-15.393m4.154,38.1-35.462-45.768c5.222,20.146,15.824,35.574,35.462,45.768m-3.04-5.868c-4.031-19.147-15.454-33.345-33.006-43.041l33.006,43.041m46.687-38.688-1.2,1.1c2.588,2.2,5.167,4.407,7.767,6.591q15.873,13.332,31.771,26.632c.075.062.367-.135.481-.18-7.868-17.133-20.92-28.4-38.822-34.139m1.134,31.89c-17.438-22.285-35.333-31.831-51.839-28.289a13.219,13.219,0,0,0,2.55,1.188A74.878,74.878,0,0,1,901.6,921.474c2.8,2.8,6.9,4.308,10.4,6.41m80.155,7.93-33.672,26.5c27.834-12.315,32.444-16.2,33.672-26.5m-35.084,25.559c19.813-11.889,33.738-24.412,35.679-31.475-13.155,8.287-25.556,18.253-35.679,31.475m-43.3-58.612c10.883,14.7,28.965,29.809,36.334,29.692-5.6-5.213-11.53-10.007-17.494-14.763-6.086-4.854-12.2-9.67-18.84-14.929" fill="#d06f4d"/>
    <path id="Path_64" data-name="Path 64" d="M845.649,937.323q-.442.335-.883.672c-6.642-2.8-13.564-5.1-19.842-8.561a40.763,40.763,0,0,0-17.632-4.887c-3.14-.2-6.466-.444-9.31-1.625-5.478-2.272-9.677-.578-13.852,2.847-13.315,10.928-28.433,17.293-45.8,18.1-3.216.148-6.387,1.245-9.6,1.908,1.542-8.511,25.932-20.339,57.134-27.392-3.024-1.057-4.862-2.067-6.8-2.317-10.981-1.42-21.592-5.43-29.332-12.476-7.717-7.025-12.441-17.339-18-26.522,16.4,9.345,35.059,15.027,46.126,31.567,2.8,4.186,5.314,8.7,10.728,10.094a210.878,210.878,0,0,0,24.115,5.157c-16.532-11.385-29.849-25.509-41.146-41.64q-.027-1.487-.054-2.97c-5.369-16.29-11.849-32.318-15.766-48.95-3.331-14.137-1.482-28.453,7.931-40.814,2.233-2.931,3.462-6.626,5.645-10.943a32.708,32.708,0,0,1,1.174,3.818c2.8,18.634.768,36.809-5.235,54.606-3.4,10.077-1.765,23.656,4.685,33.6,0-4.535.143-7.768-.025-10.985-.707-13.458,3.783-24.43,15.491-31.69,7.383-4.579,12.986-10.4,15.612-18.83.224-.718.977-1.271,1.72-2.191.356,18.162-3.943,38.849-21.443,47-9.739,4.536-13.615,14.168-8.667,24.368,9.453,19.485,24.72,33.363,42.745,44.615a2.764,2.764,0,0,0,1.706.323c-12.886-15.538-11.977-34.881-15.618-53.934,6.871,5.567,11.553,11.624,13.547,19.439,1.248,4.89,1.569,10.033,2.985,14.863,2.4,8.19,5.262,16.251,8.148,24.288.384,1.072,1.92,1.945,3.115,2.478,5.427,2.414,10.922,4.672,16.393,6.988m-39.132-61.139-2.038-.37a10.7,10.7,0,0,0-.312,2.738c.737,5.1,1.954,10.16,2.31,15.282.7,10.071,5.24,18.531,10.5,26.717,1.05,1.635,2.965,2.715,4.482,4.051l.99-2.038c-2.471-9.3-5.213-18.545-7.322-27.93-1.542-6.863-3.288-13.436-8.607-18.45M768.712,786.8c-13.558,14.12-17.167,44.4-8.922,54.461,1.1-8.578,2.1-18.33,3.661-27.991,1.437-8.874,3.484-17.65,5.261-26.47m30.27,31.571c-4.39,3.529-9.291,7.785-14.513,11.6-9.56,6.986-13.687,16.334-13.375,26.785l16.961-18.082a48.33,48.33,0,0,0,10.927-20.3m-12.82,102.939-52.935,21.477c20.685.129,38.183-7.206,52.935-21.477m-8.171-7.379c-13.4-9.39-26.788-18.781-38.545-27.024,6.1,16.016,20.49,24.042,38.545,27.024m-.6-2.114c-9.11-15.367-23.6-23.534-38.608-29.166,1.882,2.007,4.112,5.265,7.125,7.434,10.347,7.45,20.968,14.518,31.483,21.732m-15.208-69.876c7.622-19.984,10.63-44.884,7.142-53.26-1.055,6.6-1.292,14.252-3.621,21.2-3.428,10.23-4.236,20.454-3.521,32.057m37.96-22.028c-3.269,11.405-10.653,19.676-19.206,27.286-3.076,2.736-5.168,6.579-7.708,9.914,16.505-7.123,26.471-18.876,26.914-37.2m-64.62,120.61c16.333-6.655,32.668-13.31,49.669-20.235-19.039,1.8-35,9.5-49.669,20.235" fill="#d06f4d"/>
    <path id="Path_65" data-name="Path 65" d="M742.866,704.051l-1.391-.717c3.526-5.523,3.265-10.653,1.033-17.091-3.609-10.416-2.744-21.431.943-32.051,2.772-7.986,5.307-16.056,8.212-24.891,3.795,8.538,5.235,16.609,2.921,25.113-1.891,6.957-4.2,13.811-5.819,20.826a38.776,38.776,0,0,0-.453,13.352c.5-.724,1.057-1.422,1.506-2.179,3.483-5.878,6.81-11.855,10.452-17.634,4.43-7.031,8.152-14.044,10.029-22.49,3-13.49,11.709-23.224,24.548-29.069,6.373-2.9,12.507-6.327,19.517-8.97-.736,1.293-1.369,2.66-2.223,3.871-4.58,6.5-9.458,12.811-13.759,19.492a58.207,58.207,0,0,1-14.16,15.02c-9.041,6.884-18.923,12.979-24.014,24.224-4.262,9.418-10,18.163-14.987,27.261a49.611,49.611,0,0,0-2.355,5.933M770.1,655.373c16.64-9.835,28.03-22.455,35.243-38.1-13.887,9.473-26.294,21.138-35.243,38.1m39.857-43.563c-19.638,7.524-35.843,16.949-39.19,38.969,9.211-16.253,23.742-27.235,39.19-38.969m-58.48,24.425c-8.7,14.491-12.385,42.657-7.258,50.315,0-4.6-.493-9.327.139-13.892.636-4.585,2.71-8.954,3.585-13.527,1.359-7.108,2.237-14.309,3.534-22.9M745.892,687.9c-.59-11.468,4.363-21.7,7.192-32.355a34.1,34.1,0,0,0,.122-18.3c-2.338,10.7-5.206,22.016-7.151,33.491-.944,5.57-.163,11.434-.163,17.165" fill="#d06f4d"/>
    <path id="Path_66" data-name="Path 66" d="M1065.766,595.19c3.991,24.058-4.952,42.977-20.848,59.4-1.229-8.119-2.475-16.37,2.024-23.469,6.654-10.5,12.792-21.158,16.761-32.986a13.005,13.005,0,0,1,2.063-2.94m-4.208,12.187c-3.559,14.333-19.313,23.819-16.495,41.158,6.244-7.053,16.522-32.283,16.495-41.158m-15.247,44.6a38.736,38.736,0,0,0,11.907-17.773c.939-2.733,1.568-5.859,3.335-7.967,5.907-7.042,4.084-14.765,2.426-22.706,1.208,18.295-12.579,31.091-17.668,48.446" fill="#d06f4d"/>
    <path id="Path_67" data-name="Path 67" d="M806.518,876.184c3.582,12.725,7,25.5,10.866,38.139.913,2.984,3.335,5.506,5.063,8.241q-.5,1.02-.991,2.038a75.032,75.032,0,0,1-11.014-29.43c-1.08-6.6-3.915-12.915-5.962-19.358l2.038.37" fill="#d06f4d"/>
    <path id="Path_68" data-name="Path 68" d="M1041.787,667.192c-.145-1.243-2.2-7.346,4.4-14.161" fill="#d06f4d"/>
    <path id="Path_69" data-name="Path 69" d="M812.951,728.119l12.094,31.175a5.218,5.218,0,0,0,1.685,2.5,3.64,3.64,0,0,0,1.735.669v.991q-.992-.1-2.429-.124c-.958-.015-1.916-.025-2.874-.025q-1.934,0-3.618.025t-2.727.124v-.991q2.529-.1,3.222-.867t-.3-3.3l-9.22-24.633.794-.644-8.625,22.4a13.3,13.3,0,0,0-.941,3.346,3.736,3.736,0,0,0,.272,2.155,2.424,2.424,0,0,0,1.438,1.141,8.908,8.908,0,0,0,2.553.4v.991q-1.389-.1-2.9-.124c-1.009-.015-1.941-.025-2.8-.025-.826,0-1.528.01-2.106.025s-1.115.059-1.61.124v-.991a4.969,4.969,0,0,0,2.032-1.165,7.921,7.921,0,0,0,1.883-3.147l11.647-30.035h.793ZM819,749.183v.991h-14.77l.5-.991Z" fill="#d06f4d"/>
    <path id="Path_70" data-name="Path 70" d="M846.654,737.237a8.7,8.7,0,0,1,3.147.5,5.734,5.734,0,0,1,2.107,1.388,5.651,5.651,0,0,1,1.338,2.478,16.214,16.214,0,0,1,.4,4.016v13.233a3.625,3.625,0,0,0,.868,2.825,4.456,4.456,0,0,0,2.9.744v1.04q-.844-.049-2.578-.124t-3.37-.074q-1.635,0-3.2.074t-2.354.124v-1.04a3.5,3.5,0,0,0,2.527-.744,4.023,4.023,0,0,0,.743-2.825V744.523a15,15,0,0,0-.247-2.824,3.683,3.683,0,0,0-1.115-2.082,3.835,3.835,0,0,0-2.652-.793,5.842,5.842,0,0,0-3.643,1.189,7.782,7.782,0,0,0-2.429,3.246,11.711,11.711,0,0,0-.867,4.586v11a4.028,4.028,0,0,0,.743,2.825,3.5,3.5,0,0,0,2.529.744v1.04q-.8-.049-2.355-.124t-3.2-.074q-1.635,0-3.37.074t-2.577.124v-1.04a4.457,4.457,0,0,0,2.9-.744,3.629,3.629,0,0,0,.867-2.825V743.335a5.53,5.53,0,0,0-.793-3.3A3.505,3.505,0,0,0,830,738.971v-1.04q1.584.15,3.073.15a21.3,21.3,0,0,0,2.75-.173,13.739,13.739,0,0,0,2.4-.523v5.851a8.656,8.656,0,0,1,3.594-4.684,9.614,9.614,0,0,1,4.832-1.315" fill="#d06f4d"/>
    <path id="Path_71" data-name="Path 71" d="M872.129,737.238a8.413,8.413,0,0,1,4.09,1.041,5.3,5.3,0,0,1,2.551,3.568l-.643.5a5.5,5.5,0,0,0-2.156-3.023,6.234,6.234,0,0,0-3.445-.942q-2.925,0-4.883,3.024t-1.908,9.318a24.352,24.352,0,0,0,.769,6.666,8.068,8.068,0,0,0,2.28,3.965,5.427,5.427,0,0,0,3.692,1.313,5.085,5.085,0,0,0,3.767-1.784,8.7,8.7,0,0,0,2.032-5.254l.595.694a9.369,9.369,0,0,1-2.4,5.8,7.282,7.282,0,0,1-5.427,2.033,9.693,9.693,0,0,1-5.378-1.488,9.281,9.281,0,0,1-3.519-4.461,19.913,19.913,0,0,1-1.214-7.483,16.161,16.161,0,0,1,1.561-7.51,10.576,10.576,0,0,1,9.64-5.972M882.538,724.6v33.456a5.407,5.407,0,0,0,.817,3.3,3.516,3.516,0,0,0,2.95,1.065v1.041q-1.537-.147-3.074-.149a24.753,24.753,0,0,0-2.751.149,10.425,10.425,0,0,0-2.4.546V730.546a5.539,5.539,0,0,0-.793-3.3,3.506,3.506,0,0,0-2.974-1.066v-1.041q1.586.15,3.073.148a20.957,20.957,0,0,0,2.751-.172,13.965,13.965,0,0,0,2.4-.521" fill="#d06f4d"/>
    <path id="Path_72" data-name="Path 72" d="M901.224,737.237a8.828,8.828,0,0,1,6.815,2.652q2.453,2.654,2.454,8.253H893l-.049-.941h12.788a16.378,16.378,0,0,0-.4-4.486,7.778,7.778,0,0,0-1.561-3.3,3.461,3.461,0,0,0-2.751-1.241,5.055,5.055,0,0,0-4.039,2.283q-1.761,2.277-2.107,7.236l.149.2q-.1.744-.149,1.637t-.05,1.784a14.083,14.083,0,0,0,1.09,5.8,8.877,8.877,0,0,0,2.851,3.694,6.173,6.173,0,0,0,3.642,1.263,8.427,8.427,0,0,0,2.826-.47,6.907,6.907,0,0,0,2.478-1.561,9.47,9.47,0,0,0,1.983-2.926l.991.4a10.225,10.225,0,0,1-1.784,3.172,9.557,9.557,0,0,1-3.123,2.5,9.429,9.429,0,0,1-4.362.966,11.081,11.081,0,0,1-6.121-1.637,10.6,10.6,0,0,1-3.916-4.535,15.481,15.481,0,0,1-1.362-6.665,18.515,18.515,0,0,1,1.388-7.509,11.066,11.066,0,0,1,3.915-4.856,10.259,10.259,0,0,1,5.9-1.712" fill="#d06f4d"/>
    <path id="Path_73" data-name="Path 73" d="M930.069,737.237a4.893,4.893,0,0,1,2.354.546,4.27,4.27,0,0,1,1.586,1.412,3.494,3.494,0,0,1,.571,1.959,3.354,3.354,0,0,1-.769,2.181,2.521,2.521,0,0,1-2.056.941,2.762,2.762,0,0,1-1.834-.669,2.353,2.353,0,0,1-.793-1.908,2.553,2.553,0,0,1,.52-1.612,4.4,4.4,0,0,1,1.165-1.065,1.192,1.192,0,0,0-1.041-.5,4.762,4.762,0,0,0-2.825.918,8.071,8.071,0,0,0-2.181,2.354,13.072,13.072,0,0,0-1.388,3.047,10.277,10.277,0,0,0-.5,3v10.508q0,2.427,1.413,3.246a7.683,7.683,0,0,0,3.841.818v1.04q-1.14-.049-3.221-.124t-4.411-.074q-1.686,0-3.346.074t-2.5.124v-1.04a4.457,4.457,0,0,0,2.9-.744,3.629,3.629,0,0,0,.868-2.825V743.335a5.537,5.537,0,0,0-.793-3.3,3.509,3.509,0,0,0-2.974-1.068v-1.04q1.585.15,3.073.15a21.3,21.3,0,0,0,2.75-.173,13.738,13.738,0,0,0,2.4-.523v6.2a13.554,13.554,0,0,1,1.562-2.9,9.6,9.6,0,0,1,2.453-2.453,5.47,5.47,0,0,1,3.172-.992" fill="#d06f4d"/>
    <path id="Path_74" data-name="Path 74" d="M945.087,729.7v8.277h7.336v.991h-7.336v19.181a4.916,4.916,0,0,0,.843,3.272,2.963,2.963,0,0,0,2.329.941,3.36,3.36,0,0,0,2.578-1.214,10.4,10.4,0,0,0,1.883-4.089l.991.248a11.292,11.292,0,0,1-1.957,4.858,5.214,5.214,0,0,1-4.486,1.982,7.787,7.787,0,0,1-2.776-.422,5.858,5.858,0,0,1-1.932-1.214,6.14,6.14,0,0,1-1.512-2.726,16.962,16.962,0,0,1-.422-4.213v-16.6h-4.758v-.991h4.758V730.4q1.239-.048,2.38-.2a9.686,9.686,0,0,0,2.081-.5" fill="#d06f4d"/>
    <path id="Path_75" data-name="Path 75" d="M967.191,737.238a11.647,11.647,0,0,1,5.7,1.388,9.907,9.907,0,0,1,4.04,4.362,20.462,20.462,0,0,1,0,15.439,9.923,9.923,0,0,1-4.04,4.336,12.339,12.339,0,0,1-11.375,0,9.875,9.875,0,0,1-4.064-4.336,20.462,20.462,0,0,1,0-15.439,9.858,9.858,0,0,1,4.064-4.362,11.688,11.688,0,0,1,5.675-1.388m0,.992a5.339,5.339,0,0,0-4.634,2.924q-1.811,2.924-1.808,9.566t1.808,9.541a5.154,5.154,0,0,0,9.269,0q1.809-2.9,1.808-9.541t-1.808-9.566a5.341,5.341,0,0,0-4.635-2.924" fill="#d06f4d"/>
    <path id="Path_76" data-name="Path 76" d="M999.259,737.237a8.7,8.7,0,0,1,3.147.5,5.733,5.733,0,0,1,2.107,1.388,5.651,5.651,0,0,1,1.338,2.478,16.217,16.217,0,0,1,.4,4.016v13.233a3.625,3.625,0,0,0,.868,2.825,4.456,4.456,0,0,0,2.9.744v1.04q-.844-.049-2.578-.124t-3.37-.074q-1.635,0-3.2.074t-2.354.124v-1.04a3.5,3.5,0,0,0,2.527-.744,4.023,4.023,0,0,0,.743-2.825V744.523a15,15,0,0,0-.247-2.824,3.683,3.683,0,0,0-1.115-2.082,3.835,3.835,0,0,0-2.652-.793,5.842,5.842,0,0,0-3.643,1.189,7.782,7.782,0,0,0-2.429,3.246,11.71,11.71,0,0,0-.867,4.586v11a4.028,4.028,0,0,0,.743,2.825,3.5,3.5,0,0,0,2.529.744v1.04q-.795-.049-2.355-.124t-3.2-.074q-1.635,0-3.37.074t-2.577.124v-1.04a4.457,4.457,0,0,0,2.9-.744,3.629,3.629,0,0,0,.867-2.825V743.335a5.53,5.53,0,0,0-.793-3.3,3.505,3.505,0,0,0-2.973-1.068v-1.04q1.584.15,3.073.15a21.3,21.3,0,0,0,2.75-.173,13.738,13.738,0,0,0,2.4-.523v5.851a8.657,8.657,0,0,1,3.594-4.684,9.614,9.614,0,0,1,4.832-1.315" fill="#d06f4d"/>
    <path id="Path_77" data-name="Path 77" d="M839.557,793.368a8.913,8.913,0,0,1-4.1-.957,10.761,10.761,0,0,1-3.269-2.545,11.7,11.7,0,0,1-2.145-3.578,11.338,11.338,0,0,1-.755-4.057,11.824,11.824,0,0,1,.74-4.15,11.405,11.405,0,0,1,2.1-3.547,10.191,10.191,0,0,1,3.209-2.469,9.045,9.045,0,0,1,4.041-.91,9.409,9.409,0,0,1,5.291,1.342,8.8,8.8,0,0,1,3.071,3.441l-1.3.77a7.053,7.053,0,0,0-2.946-3.131,8.733,8.733,0,0,0-4.15-.971,7.512,7.512,0,0,0-3.517.817,8.39,8.39,0,0,0-2.684,2.19,9.978,9.978,0,0,0-1.7,3.1,10.963,10.963,0,0,0-.586,3.548,9.958,9.958,0,0,0,.678,3.671,10.322,10.322,0,0,0,1.882,3.086,8.864,8.864,0,0,0,2.808,2.128,7.8,7.8,0,0,0,3.425.771,8.212,8.212,0,0,0,4.01-1.033,12.076,12.076,0,0,0,3.61-3.255v1.758a9.736,9.736,0,0,1-7.713,3.98m7.373-9.533h-4.967V782.57h6.324v10.644H846.93Z" fill="#d06f4d"/>
    <path id="Path_78" data-name="Path 78" d="M856.741,788.6a3.848,3.848,0,0,1,.863-2.507,5.692,5.692,0,0,1,2.376-1.661,9.4,9.4,0,0,1,3.487-.6,15.826,15.826,0,0,1,2.56.217,13.724,13.724,0,0,1,2.375.586V783.13a4.856,4.856,0,0,0-1.28-3.529,4.7,4.7,0,0,0-3.532-1.319,6.988,6.988,0,0,0-2.5.494,12.907,12.907,0,0,0-2.654,1.418l-.647-1.11a14.77,14.77,0,0,1,3.039-1.589,8.4,8.4,0,0,1,2.915-.539,6.076,6.076,0,0,1,4.535,1.69,6.28,6.28,0,0,1,1.666,4.608v7.927a.794.794,0,0,0,.17.553.745.745,0,0,0,.509.214v1.266a4.508,4.508,0,0,1-.463.031h-.309a1.4,1.4,0,0,1-.91-.494,1.541,1.541,0,0,1-.354-.894v-1.266a7.444,7.444,0,0,1-2.854,2.16,8.942,8.942,0,0,1-3.656.772,5.738,5.738,0,0,1-2.731-.646,4.893,4.893,0,0,1-1.912-1.768,4.669,4.669,0,0,1-.694-2.506m11.044,1.32a3.42,3.42,0,0,0,.463-.768,1.779,1.779,0,0,0,.154-.676v-2.642a12.422,12.422,0,0,0-2.313-.645,13.938,13.938,0,0,0-2.468-.215,7.169,7.169,0,0,0-3.9.952,2.925,2.925,0,0,0-1.5,2.581,3.531,3.531,0,0,0,.524,1.874,3.878,3.878,0,0,0,1.466,1.383,4.416,4.416,0,0,0,2.175.521,7.675,7.675,0,0,0,3.193-.66,5.259,5.259,0,0,0,2.2-1.705" fill="#d06f4d"/>
    <path id="Path_79" data-name="Path 79" d="M887.838,778.56a6.3,6.3,0,0,0-6.047,4.628v10.026h-1.543V777.2h1.482v3.918a7.68,7.68,0,0,1,2.22-2.762,5.715,5.715,0,0,1,2.931-1.218c.206-.02.391-.031.556-.031h.4Z" fill="#d06f4d"/>
    <path id="Path_80" data-name="Path 80" d="M894.717,785.255a8.94,8.94,0,0,1,.956-4.119,8.08,8.08,0,0,1,2.622-3.028,6.512,6.512,0,0,1,3.8-1.152,6.413,6.413,0,0,1,3.717,1.109,8.55,8.55,0,0,1,2.546,2.655V770.692H909.9v20.486a.8.8,0,0,0,.17.555.71.71,0,0,0,.477.215v1.266a3.3,3.3,0,0,1-.74.031,1.509,1.509,0,0,1-.925-.525,1.4,1.4,0,0,1-.37-.925v-1.79a7.348,7.348,0,0,1-2.654,2.56,6.778,6.778,0,0,1-3.424.957,6.943,6.943,0,0,1-3.085-.691,7.8,7.8,0,0,1-2.453-1.859,8.662,8.662,0,0,1-1.6-2.644,8.412,8.412,0,0,1-.572-3.073m13.637,2.579v-5.251a6.017,6.017,0,0,0-1.388-2.136,7.556,7.556,0,0,0-2.161-1.535,5.528,5.528,0,0,0-2.375-.568,5.388,5.388,0,0,0-2.515.583,6.26,6.26,0,0,0-1.943,1.566,7.1,7.1,0,0,0-1.25,2.228,7.786,7.786,0,0,0-.432,2.564,6.985,6.985,0,0,0,.494,2.6,7.222,7.222,0,0,0,1.373,2.212,6.371,6.371,0,0,0,2.036,1.505,5.9,5.9,0,0,0,2.514.537,5.247,5.247,0,0,0,1.775-.338,7.433,7.433,0,0,0,1.789-.937,6.076,6.076,0,0,0,1.419-1.381,3.384,3.384,0,0,0,.664-1.644" fill="#d06f4d"/>
    <path id="Path_81" data-name="Path 81" d="M927.235,793.523a7.5,7.5,0,0,1-3.147-.661,7.75,7.75,0,0,1-2.514-1.814,8.494,8.494,0,0,1-1.666-2.674,8.636,8.636,0,0,1-.6-3.213,8.371,8.371,0,0,1,1.018-4.117,8.031,8.031,0,0,1,2.807-2.967,7.394,7.394,0,0,1,4.011-1.121,7.284,7.284,0,0,1,4.042,1.137,8.348,8.348,0,0,1,2.792,3,8.257,8.257,0,0,1,1.033,4.073v.37a1.317,1.317,0,0,1-.031.307H920.91a7.174,7.174,0,0,0,1.018,3.285,6.717,6.717,0,0,0,2.3,2.319,5.85,5.85,0,0,0,3.069.843,6.146,6.146,0,0,0,3.147-.863,4.76,4.76,0,0,0,2.067-2.222l1.358.371a5.477,5.477,0,0,1-1.466,2.036,7.444,7.444,0,0,1-2.345,1.4,7.876,7.876,0,0,1-2.822.51m-6.387-8.885h12.681a7.3,7.3,0,0,0-.988-3.316,6.409,6.409,0,0,0-2.267-2.272,5.987,5.987,0,0,0-3.1-.83,5.9,5.9,0,0,0-3.085.83,6.444,6.444,0,0,0-2.253,2.272,7.282,7.282,0,0,0-.987,3.316" fill="#d06f4d"/>
    <path id="Path_82" data-name="Path 82" d="M957.129,793.214h-1.543V784.3a8.856,8.856,0,0,0-.879-4.5,3.037,3.037,0,0,0-2.792-1.43,5.975,5.975,0,0,0-2.669.646,7.194,7.194,0,0,0-2.283,1.764,6.915,6.915,0,0,0-1.4,2.534v9.9h-1.543V777.2h1.45v3.841a7.1,7.1,0,0,1,1.727-2.136,8.638,8.638,0,0,1,2.407-1.429,7.426,7.426,0,0,1,2.746-.522,4.771,4.771,0,0,1,2.236.476,3.859,3.859,0,0,1,1.482,1.368,6.207,6.207,0,0,1,.817,2.213,16.565,16.565,0,0,1,.247,3.012Z" fill="#d06f4d"/>
    <path id="Path_83" data-name="Path 83" d="M972.461,793.523a9.544,9.544,0,0,1-3.548-.648,7.8,7.8,0,0,1-2.869-1.975l.71-1.079a8.957,8.957,0,0,0,2.684,1.835,7.554,7.554,0,0,0,2.961.571,5.905,5.905,0,0,0,3.348-.859,2.729,2.729,0,0,0,1.28-2.394,2.115,2.115,0,0,0-.6-1.613,4.415,4.415,0,0,0-1.728-.923q-1.128-.352-2.73-.753a22.614,22.614,0,0,1-2.762-.891,3.885,3.885,0,0,1-1.681-1.2,3.243,3.243,0,0,1-.555-2,4.156,4.156,0,0,1,.786-2.6,4.7,4.7,0,0,1,2.129-1.538,8.385,8.385,0,0,1,2.977-.505,8.119,8.119,0,0,1,3.286.616,5.114,5.114,0,0,1,2.144,1.636l-.833.986a4.6,4.6,0,0,0-2.005-1.465,7.475,7.475,0,0,0-2.716-.478,7.042,7.042,0,0,0-2.1.307,3.379,3.379,0,0,0-1.589,1,2.73,2.73,0,0,0-.6,1.858,2.152,2.152,0,0,0,.448,1.445,3.116,3.116,0,0,0,1.342.846q.894.321,2.221.689a32.586,32.586,0,0,1,3.239.953,5.313,5.313,0,0,1,2.1,1.276,3.071,3.071,0,0,1,.741,2.2,4.082,4.082,0,0,1-1.666,3.441,7.132,7.132,0,0,1-4.412,1.26" fill="#d06f4d"/>
  </g>
</svg>
