<svg xmlns="http://www.w3.org/2000/svg" width="210.992" height="68.139" viewBox="0 0 210.992 68.139">
  <g id="logo-dark" transform="translate(-87.036 -55.978)">
    <path id="Path_1" data-name="Path 1" d="M103.207,62.936l11.956,30.821a5.149,5.149,0,0,0,1.666,2.475,3.59,3.59,0,0,0,1.715.662v.98q-.981-.1-2.4-.122t-2.843-.024q-1.91,0-3.577.024t-2.695.122v-.98q2.5-.1,3.185-.858t-.295-3.259l-9.114-24.353.785-.637L93.063,89.935a13.079,13.079,0,0,0-.931,3.308,3.69,3.69,0,0,0,.27,2.132,2.392,2.392,0,0,0,1.42,1.127,8.787,8.787,0,0,0,2.524.393v.98q-1.373-.1-2.866-.122t-2.769-.024q-1.226,0-2.083.024a15.7,15.7,0,0,0-1.593.122v-.98a4.92,4.92,0,0,0,2.01-1.152,7.826,7.826,0,0,0,1.862-3.112l11.516-29.694h.784Zm5.978,20.825v.98h-14.6l.489-.98Z" transform="translate(0 -3.479)" fill="#d89c79"/>
    <path id="Path_2" data-name="Path 2" d="M169.551,80.968a8.6,8.6,0,0,1,3.112.49,5.675,5.675,0,0,1,2.083,1.373,5.574,5.574,0,0,1,1.322,2.45,16,16,0,0,1,.392,3.969v13.083a3.585,3.585,0,0,0,.858,2.793,4.406,4.406,0,0,0,2.867.736v1.029q-.835-.049-2.548-.122t-3.332-.074q-1.617,0-3.161.074t-2.328.122V105.86a3.458,3.458,0,0,0,2.5-.736,3.974,3.974,0,0,0,.735-2.793V88.171a14.864,14.864,0,0,0-.244-2.794,3.64,3.64,0,0,0-1.1-2.058,3.785,3.785,0,0,0-2.622-.784,5.776,5.776,0,0,0-3.6,1.176,7.68,7.68,0,0,0-2.4,3.21,11.55,11.55,0,0,0-.857,4.533v10.878a3.974,3.974,0,0,0,.735,2.793,3.458,3.458,0,0,0,2.5.736v1.029q-.784-.049-2.328-.122t-3.161-.074q-1.616,0-3.332.074t-2.549.122V105.86a4.408,4.408,0,0,0,2.867-.736,3.587,3.587,0,0,0,.858-2.793V87a5.473,5.473,0,0,0-.785-3.259,3.469,3.469,0,0,0-2.94-1.054V81.654q1.568.146,3.038.147a20.669,20.669,0,0,0,2.72-.172,13.784,13.784,0,0,0,2.377-.514V86.9a8.567,8.567,0,0,1,3.552-4.63,9.514,9.514,0,0,1,4.778-1.3" transform="translate(-33.025 -12.495)" fill="#d89c79"/>
    <path id="Path_3" data-name="Path 3" d="M225.312,68.473a8.313,8.313,0,0,1,4.043,1.029,5.251,5.251,0,0,1,2.524,3.528l-.637.49a5.442,5.442,0,0,0-2.131-2.989A6.156,6.156,0,0,0,225.7,69.6a5.652,5.652,0,0,0-4.826,2.989q-1.937,2.99-1.887,9.212a24.086,24.086,0,0,0,.759,6.591,7.982,7.982,0,0,0,2.255,3.92,5.37,5.37,0,0,0,3.65,1.3,5.03,5.03,0,0,0,3.725-1.764,8.614,8.614,0,0,0,2.008-5.194l.588.686a9.26,9.26,0,0,1-2.377,5.733,7.2,7.2,0,0,1-5.365,2.009,9.586,9.586,0,0,1-5.317-1.47,9.179,9.179,0,0,1-3.479-4.41,19.676,19.676,0,0,1-1.2-7.4,15.983,15.983,0,0,1,1.543-7.424,10.457,10.457,0,0,1,9.531-5.9m10.29-12.5V89.053a5.344,5.344,0,0,0,.809,3.259,3.476,3.476,0,0,0,2.916,1.053v1.029q-1.519-.147-3.038-.147a24.164,24.164,0,0,0-2.719.147,10.312,10.312,0,0,0-2.377.539V61.858a5.477,5.477,0,0,0-.785-3.259,3.469,3.469,0,0,0-2.94-1.054V56.517q1.568.147,3.039.147a20.654,20.654,0,0,0,2.719-.172,13.742,13.742,0,0,0,2.376-.514" transform="translate(-63.601)" fill="#d89c79"/>
    <path id="Path_4" data-name="Path 4" d="M282.838,80.968a8.724,8.724,0,0,1,6.737,2.622Q292,86.211,292,91.748H274.7l-.048-.931H287.3a16.111,16.111,0,0,0-.392-4.435,7.68,7.68,0,0,0-1.543-3.259,3.426,3.426,0,0,0-2.72-1.226,5,5,0,0,0-3.993,2.255q-1.74,2.255-2.082,7.154l.147.2q-.1.736-.147,1.618t-.049,1.764a13.911,13.911,0,0,0,1.078,5.733,8.785,8.785,0,0,0,2.817,3.651,6.1,6.1,0,0,0,3.6,1.25,8.346,8.346,0,0,0,2.793-.466,6.8,6.8,0,0,0,2.45-1.544,9.344,9.344,0,0,0,1.96-2.891l.98.392a10.1,10.1,0,0,1-1.764,3.136,9.444,9.444,0,0,1-3.087,2.475,9.317,9.317,0,0,1-4.312.956,10.973,10.973,0,0,1-6.052-1.618,10.479,10.479,0,0,1-3.871-4.483,15.316,15.316,0,0,1-1.348-6.591,18.31,18.31,0,0,1,1.372-7.424,10.96,10.96,0,0,1,3.871-4.8,10.155,10.155,0,0,1,5.831-1.691" transform="translate(-92.364 -12.495)" fill="#d89c79"/>
    <path id="Path_5" data-name="Path 5" d="M335.708,80.968a4.845,4.845,0,0,1,2.327.539,4.231,4.231,0,0,1,1.569,1.4,3.454,3.454,0,0,1,.563,1.936,3.31,3.31,0,0,1-.76,2.156,2.488,2.488,0,0,1-2.033.931,2.727,2.727,0,0,1-1.813-.661,2.33,2.33,0,0,1-.784-1.887,2.513,2.513,0,0,1,.515-1.592,4.374,4.374,0,0,1,1.151-1.054,1.175,1.175,0,0,0-1.029-.49,4.713,4.713,0,0,0-2.793.906,7.974,7.974,0,0,0-2.156,2.328,12.854,12.854,0,0,0-1.372,3.014,10.113,10.113,0,0,0-.49,2.965v10.388q0,2.4,1.4,3.21a7.581,7.581,0,0,0,3.8.809v1.029q-1.128-.049-3.185-.122t-4.361-.074q-1.666,0-3.308.074t-2.475.122V105.86a4.408,4.408,0,0,0,2.867-.736,3.587,3.587,0,0,0,.857-2.793V87a5.473,5.473,0,0,0-.784-3.259,3.468,3.468,0,0,0-2.94-1.054V81.654q1.568.146,3.039.147a20.661,20.661,0,0,0,2.719-.172,13.763,13.763,0,0,0,2.377-.514V87.24a13.3,13.3,0,0,1,1.544-2.867,9.51,9.51,0,0,1,2.425-2.426,5.4,5.4,0,0,1,3.136-.98" transform="translate(-116.715 -12.495)" fill="#d89c79"/>
    <path id="Path_6" data-name="Path 6" d="M371.527,66.071v8.184h7.252v.98h-7.252V94.2a4.865,4.865,0,0,0,.833,3.235,2.93,2.93,0,0,0,2.3.931,3.321,3.321,0,0,0,2.549-1.2,10.275,10.275,0,0,0,1.862-4.042l.98.244a11.157,11.157,0,0,1-1.935,4.8,5.149,5.149,0,0,1-4.435,1.961,7.7,7.7,0,0,1-2.744-.417,5.816,5.816,0,0,1-1.911-1.2,6.08,6.08,0,0,1-1.495-2.7,16.756,16.756,0,0,1-.417-4.165V75.235h-4.7v-.98h4.7v-7.5q1.225-.047,2.352-.2a9.488,9.488,0,0,0,2.058-.491" transform="translate(-137.687 -5.046)" fill="#d89c79"/>
    <path id="Path_7" data-name="Path 7" d="M413.225,80.968a11.519,11.519,0,0,1,5.635,1.372,9.8,9.8,0,0,1,3.994,4.312,16.893,16.893,0,0,1,1.494,7.644,16.732,16.732,0,0,1-1.494,7.62,9.817,9.817,0,0,1-3.994,4.288,12.209,12.209,0,0,1-11.246,0,9.766,9.766,0,0,1-4.018-4.288A16.725,16.725,0,0,1,402.1,94.3a16.886,16.886,0,0,1,1.494-7.644,9.745,9.745,0,0,1,4.018-4.312,11.556,11.556,0,0,1,5.611-1.372m0,.98a5.277,5.277,0,0,0-4.581,2.891q-1.789,2.892-1.788,9.457t1.788,9.433a5.094,5.094,0,0,0,9.163,0q1.789-2.867,1.788-9.433t-1.788-9.457a5.279,5.279,0,0,0-4.582-2.891" transform="translate(-157.532 -12.495)" fill="#d89c79"/>
    <path id="Path_8" data-name="Path 8" d="M471.288,80.968a8.6,8.6,0,0,1,3.112.49,5.675,5.675,0,0,1,2.083,1.373,5.574,5.574,0,0,1,1.323,2.45,16,16,0,0,1,.392,3.969v13.083a3.585,3.585,0,0,0,.858,2.793,4.406,4.406,0,0,0,2.867.736v1.029q-.835-.049-2.548-.122t-3.332-.074q-1.617,0-3.161.074t-2.328.122V105.86a3.458,3.458,0,0,0,2.5-.736,3.974,3.974,0,0,0,.735-2.793V88.171a14.865,14.865,0,0,0-.245-2.794,3.64,3.64,0,0,0-1.1-2.058,3.785,3.785,0,0,0-2.622-.784,5.776,5.776,0,0,0-3.6,1.176,7.68,7.68,0,0,0-2.4,3.21,11.549,11.549,0,0,0-.858,4.533v10.878a3.974,3.974,0,0,0,.735,2.793,3.458,3.458,0,0,0,2.5.736v1.029q-.785-.049-2.328-.122t-3.161-.074q-1.616,0-3.332.074t-2.548.122V105.86a4.408,4.408,0,0,0,2.867-.736,3.587,3.587,0,0,0,.857-2.793V87a5.474,5.474,0,0,0-.784-3.259,3.469,3.469,0,0,0-2.94-1.054V81.654q1.568.146,3.038.147a20.669,20.669,0,0,0,2.72-.172,13.784,13.784,0,0,0,2.376-.514V86.9a8.567,8.567,0,0,1,3.552-4.63,9.514,9.514,0,0,1,4.778-1.3" transform="translate(-183.893 -12.495)" fill="#d89c79"/>
    <path id="Path_9" data-name="Path 9" d="M161.826,169.99a8.822,8.822,0,0,1-4.057-.945,10.666,10.666,0,0,1-3.233-2.516,11.584,11.584,0,0,1-2.12-3.538,11.2,11.2,0,0,1-.747-4.011,11.669,11.669,0,0,1,.732-4.1,11.271,11.271,0,0,1,2.074-3.508,10.062,10.062,0,0,1,3.172-2.44,8.928,8.928,0,0,1,4-.9,9.3,9.3,0,0,1,5.232,1.327,8.716,8.716,0,0,1,3.034,3.4l-1.282.763a6.96,6.96,0,0,0-2.912-3.1,8.632,8.632,0,0,0-4.1-.961,7.427,7.427,0,0,0-3.477.808,8.307,8.307,0,0,0-2.654,2.165A9.886,9.886,0,0,0,153.8,155.5a10.842,10.842,0,0,0-.579,3.508,9.828,9.828,0,0,0,.671,3.629,10.139,10.139,0,0,0,1.86,3.051,8.733,8.733,0,0,0,2.776,2.1,7.711,7.711,0,0,0,3.386.762,8.107,8.107,0,0,0,3.966-1.022,11.931,11.931,0,0,0,3.569-3.217v1.738a9.627,9.627,0,0,1-7.626,3.935m7.29-9.425h-4.91v-1.251h6.252v10.523h-1.342Z" transform="translate(-32.316 -46.026)" fill="#d89c79"/>
    <path id="Path_10" data-name="Path 10" d="M205.959,171.012a3.8,3.8,0,0,1,.854-2.479,5.629,5.629,0,0,1,2.349-1.642,9.3,9.3,0,0,1,3.447-.592,15.741,15.741,0,0,1,2.532.214,13.724,13.724,0,0,1,2.349.579V165.6a4.794,4.794,0,0,0-1.267-3.488,4.641,4.641,0,0,0-3.492-1.3,6.932,6.932,0,0,0-2.47.488,12.722,12.722,0,0,0-2.623,1.4L207,161.6a14.55,14.55,0,0,1,3-1.57,8.288,8.288,0,0,1,2.883-.535,6.013,6.013,0,0,1,4.484,1.671,6.21,6.21,0,0,1,1.647,4.556v7.837a.784.784,0,0,0,.167.547.747.747,0,0,0,.5.212v1.251a4.349,4.349,0,0,1-.457.03h-.305a1.38,1.38,0,0,1-.9-.488,1.529,1.529,0,0,1-.351-.884v-1.251a7.353,7.353,0,0,1-2.822,2.135,8.847,8.847,0,0,1-3.614.763,5.691,5.691,0,0,1-2.7-.638,4.839,4.839,0,0,1-1.891-1.749,4.616,4.616,0,0,1-.687-2.478m10.919,1.306a3.43,3.43,0,0,0,.457-.76,1.748,1.748,0,0,0,.153-.668v-2.613a12.4,12.4,0,0,0-2.288-.637,13.866,13.866,0,0,0-2.44-.213,7.085,7.085,0,0,0-3.859.942,2.89,2.89,0,0,0-1.479,2.551,3.5,3.5,0,0,0,.518,1.853,3.84,3.84,0,0,0,1.449,1.367,4.361,4.361,0,0,0,2.151.516A7.59,7.59,0,0,0,214.7,174a5.214,5.214,0,0,0,2.181-1.686" transform="translate(-59.461 -51.759)" fill="#d89c79"/>
    <path id="Path_11" data-name="Path 11" d="M259.943,161.237a6.229,6.229,0,0,0-5.978,4.575v9.913H252.44v-15.83H253.9v3.874a7.587,7.587,0,0,1,2.2-2.729,5.642,5.642,0,0,1,2.9-1.206q.305-.03.549-.03h.4Z" transform="translate(-82.702 -51.912)" fill="#d89c79"/>
    <path id="Path_12" data-name="Path 12" d="M281.048,161.51a8.828,8.828,0,0,1,.946-4.072,7.977,7.977,0,0,1,2.592-2.993,6.435,6.435,0,0,1,3.752-1.14,6.343,6.343,0,0,1,3.676,1.1,8.439,8.439,0,0,1,2.516,2.623v-9.913h1.525v20.252a.788.788,0,0,0,.167.549.709.709,0,0,0,.473.214v1.251a3.246,3.246,0,0,1-.732.03,1.494,1.494,0,0,1-.915-.518,1.385,1.385,0,0,1-.365-.915v-1.769a7.282,7.282,0,0,1-2.623,2.531,6.716,6.716,0,0,1-3.386.946,6.878,6.878,0,0,1-3.049-.684,7.7,7.7,0,0,1-2.425-1.839,8.589,8.589,0,0,1-1.586-2.613,8.346,8.346,0,0,1-.564-3.04m13.482,2.551v-5.193a5.916,5.916,0,0,0-1.372-2.11,7.473,7.473,0,0,0-2.135-1.519,5.468,5.468,0,0,0-2.349-.562,5.323,5.323,0,0,0-2.486.577,6.161,6.161,0,0,0-1.922,1.548,7.009,7.009,0,0,0-1.235,2.2,7.669,7.669,0,0,0-.427,2.535,6.894,6.894,0,0,0,.488,2.566,7.121,7.121,0,0,0,1.357,2.186,6.273,6.273,0,0,0,2.013,1.488,5.823,5.823,0,0,0,2.486.531,5.2,5.2,0,0,0,1.754-.334,7.382,7.382,0,0,0,1.769-.927,5.991,5.991,0,0,0,1.4-1.366,3.343,3.343,0,0,0,.656-1.625" transform="translate(-97.006 -45.568)" fill="#d89c79"/>
    <path id="Path_13" data-name="Path 13" d="M337.5,175.877a7.414,7.414,0,0,1-3.112-.653,7.688,7.688,0,0,1-2.485-1.793,8.416,8.416,0,0,1-1.647-2.644,8.56,8.56,0,0,1-.6-3.176,8.279,8.279,0,0,1,1.007-4.071,7.929,7.929,0,0,1,2.776-2.933,7.309,7.309,0,0,1,3.965-1.109,7.2,7.2,0,0,1,4,1.125,8.239,8.239,0,0,1,2.76,2.964,8.152,8.152,0,0,1,1.022,4.027v.365a1.261,1.261,0,0,1-.031.3H331.252a7.084,7.084,0,0,0,1.006,3.249,6.637,6.637,0,0,0,2.272,2.292,5.779,5.779,0,0,0,3.035.835,6.076,6.076,0,0,0,3.111-.854,4.7,4.7,0,0,0,2.044-2.2l1.341.366a5.406,5.406,0,0,1-1.448,2.013,7.358,7.358,0,0,1-2.318,1.388,7.812,7.812,0,0,1-2.791.5m-6.314-8.784h12.535a7.215,7.215,0,0,0-.975-3.279,6.352,6.352,0,0,0-2.242-2.246,5.921,5.921,0,0,0-3.065-.82,5.841,5.841,0,0,0-3.051.82,6.382,6.382,0,0,0-2.226,2.246,7.2,7.2,0,0,0-.976,3.279" transform="translate(-121.314 -51.76)" fill="#d89c79"/>
    <path id="Path_14" data-name="Path 14" d="M391.488,175.572h-1.525v-8.808a8.76,8.76,0,0,0-.869-4.45,3,3,0,0,0-2.761-1.413,5.911,5.911,0,0,0-2.638.638,7.1,7.1,0,0,0-2.257,1.745,6.827,6.827,0,0,0-1.388,2.5v9.784h-1.525v-15.83h1.434v3.8a6.991,6.991,0,0,1,1.708-2.112,8.542,8.542,0,0,1,2.379-1.413,7.351,7.351,0,0,1,2.715-.516,4.734,4.734,0,0,1,2.212.471,3.824,3.824,0,0,1,1.464,1.352,6.125,6.125,0,0,1,.809,2.188,16.407,16.407,0,0,1,.243,2.978Z" transform="translate(-145.744 -51.76)" fill="#d89c79"/>
    <path id="Path_15" data-name="Path 15" d="M428.424,175.876a9.449,9.449,0,0,1-3.508-.641,7.721,7.721,0,0,1-2.837-1.953l.7-1.067a8.882,8.882,0,0,0,2.654,1.815,7.484,7.484,0,0,0,2.928.563,5.835,5.835,0,0,0,3.31-.85,2.7,2.7,0,0,0,1.265-2.367,2.091,2.091,0,0,0-.595-1.6,4.37,4.37,0,0,0-1.708-.912q-1.114-.35-2.7-.744a22.088,22.088,0,0,1-2.73-.881,3.837,3.837,0,0,1-1.662-1.185,3.211,3.211,0,0,1-.549-1.976,4.107,4.107,0,0,1,.778-2.568,4.641,4.641,0,0,1,2.1-1.52,8.273,8.273,0,0,1,2.943-.5,8.016,8.016,0,0,1,3.249.611,5.059,5.059,0,0,1,2.12,1.616l-.823.976a4.552,4.552,0,0,0-1.983-1.449,7.373,7.373,0,0,0-2.684-.473,6.94,6.94,0,0,0-2.074.3,3.341,3.341,0,0,0-1.57.987,2.7,2.7,0,0,0-.6,1.838,2.124,2.124,0,0,0,.443,1.428,3.08,3.08,0,0,0,1.327.836q.884.319,2.2.683a31.585,31.585,0,0,1,3.2.943,5.268,5.268,0,0,1,2.075,1.26,3.042,3.042,0,0,1,.732,2.172,4.036,4.036,0,0,1-1.647,3.4,7.051,7.051,0,0,1-4.362,1.246" transform="translate(-167.521 -51.759)" fill="#d89c79"/>
  </g>
</svg>
